<svg width="430" height="430" viewBox="0 0 430 430" fill="none" xmlns="http://www.w3.org/2000/svg">
<rect x="240" y="112" width="93" height="111" fill="#2563EB"/>
<path d="M64 235V235C86.0914 235 104 252.909 104 275V295V295C81.9086 295 64 277.091 64 255V235Z" fill="#E4E4E7"/>
<rect x="163" y="95" width="10" height="10" rx="5" fill="#09090B"/>
<rect x="210" y="361" width="10" height="10" rx="5" fill="#E4E4E7"/>
<rect x="148" y="351" width="10" height="10" rx="5" fill="#09090B"/>
<rect x="301" y="301" width="5" height="5" rx="2.5" fill="#09090B"/>
<rect x="326" y="260" width="5" height="5" rx="2.5" fill="#09090B"/>
<rect x="76" y="329" width="5" height="5" rx="2.5" fill="#09090B"/>
<rect x="337" y="260" width="5" height="5" rx="2.5" fill="#09090B"/>
<rect x="87" y="329" width="5" height="5" rx="2.5" fill="#09090B"/>
<rect x="348" y="260" width="5" height="5" rx="2.5" fill="#09090B"/>
<rect x="98" y="329" width="5" height="5" rx="2.5" fill="#09090B"/>
<rect x="359" y="260" width="5" height="5" rx="2.5" fill="#09090B"/>
<rect x="109" y="329" width="5" height="5" rx="2.5" fill="#09090B"/>
<rect x="348" y="269" width="5" height="5" rx="2.5" fill="#09090B"/>
<rect x="98" y="338" width="5" height="5" rx="2.5" fill="#09090B"/>
<rect x="337" y="278" width="5" height="5" rx="2.5" fill="#09090B"/>
<rect x="87" y="347" width="5" height="5" rx="2.5" fill="#09090B"/>
<rect x="326" y="287" width="5" height="5" rx="2.5" fill="#09090B"/>
<rect x="76" y="356" width="5" height="5" rx="2.5" fill="#09090B"/>
<rect x="337" y="287" width="5" height="5" rx="2.5" fill="#09090B"/>
<rect x="87" y="356" width="5" height="5" rx="2.5" fill="#09090B"/>
<rect x="348" y="287" width="5" height="5" rx="2.5" fill="#09090B"/>
<rect x="98" y="356" width="5" height="5" rx="2.5" fill="#09090B"/>
<rect x="359" y="287" width="5" height="5" rx="2.5" fill="#09090B"/>
<rect x="109" y="356" width="5" height="5" rx="2.5" fill="#09090B"/>
<rect x="104" y="142" width="5" height="5" rx="2.5" fill="#09090B"/>
<rect x="116" y="132" width="5" height="5" rx="2.5" fill="#09090B"/>
<rect x="99" y="167" width="5" height="5" rx="2.5" fill="#09090B"/>
<rect x="111" y="157" width="5" height="5" rx="2.5" fill="#09090B"/>
<rect x="223.096" y="77.4053" width="4" height="25" transform="rotate(37.8764 223.096 77.4053)" fill="#E4E4E7"/>
<rect x="70.3491" y="169" width="4" height="25" transform="rotate(37.8764 70.3491 169)" fill="#E4E4E7"/>
<rect x="306.349" y="384" width="4" height="25" transform="rotate(37.8764 306.349 384)" fill="#E4E4E7"/>
<rect x="118" y="152" width="193" height="192" rx="96" fill="#ECC30B"/>
</svg>
